<?xml version="1.0" standalone="no"?>
<!DOCTYPE svg PUBLIC "-//W3C//DTD SVG 20010904//EN"
 "http://www.w3.org/TR/2001/REC-SVG-20010904/DTD/svg10.dtd">
<svg version="1.0" xmlns="http://www.w3.org/2000/svg"
 width="700.000000pt" height="700.000000pt" viewBox="0 0 700.000000 700.000000"
 preserveAspectRatio="xMidYMid meet">
<metadata>
Created by potrace 1.11, written by Peter Selinger 2001-2013
</metadata>
<g transform="translate(0.000000,700.000000) scale(0.100000,-0.100000)"
fill="#000000" stroke="none">
<path d="M2601 6390 c-14 -15 -44 -47 -66 -71 -22 -24 -89 -98 -150 -164 -60
-66 -126 -138 -146 -160 -20 -22 -62 -67 -92 -100 l-56 -60 -498 -1 c-551 -1
-564 -3 -693 -67 -83 -41 -204 -160 -247 -242 -17 -33 -40 -93 -50 -133 -19
-70 -19 -138 -18 -1910 l1 -1837 26 -72 c14 -40 38 -94 54 -120 31 -54 149
-177 185 -193 13 -6 40 -20 59 -30 36 -20 127 -50 170 -57 14 -2 1105 -4 2425
-4 2191 -1 2405 1 2463 15 172 45 313 158 386 311 65 134 61 5 60 2015 0 1744
-1 1838 -18 1895 -46 153 -169 302 -300 364 -134 63 -140 64 -689 65 l-498 1
-47 50 c-58 62 -214 232 -239 261 -25 30 -182 200 -219 239 l-31 32 -873 0
-873 0 -26 -27z m1094 -1444 c208 -29 419 -108 599 -224 75 -48 87 -58 155
-117 160 -139 276 -290 362 -472 73 -153 98 -231 128 -404 17 -94 21 -369 7
-429 -4 -14 -9 -41 -12 -60 -8 -53 -54 -220 -71 -260 -28 -63 -102 -214 -124
-249 -133 -219 -366 -427 -611 -546 -68 -33 -221 -89 -278 -100 -14 -3 -47
-10 -75 -16 -137 -29 -377 -31 -522 -5 -694 125 -1197 710 -1207 1404 -2 125
3 212 18 286 29 143 32 154 78 274 120 320 386 615 695 771 150 75 343 134
483 147 36 4 66 8 68 9 5 4 270 -4 307 -9z"/>
<path d="M3478 4435 c-2 -1 -36 -5 -77 -9 -369 -31 -699 -311 -799 -677 -28
-102 -34 -148 -34 -250 1 -199 48 -351 157 -514 154 -230 378 -369 660 -411
83 -12 225 -5 322 16 383 84 682 425 721 820 39 402 -189 787 -559 946 -92 39
-179 62 -267 70 -31 3 -72 7 -89 8 -18 2 -34 2 -35 1z"/>
</g>
</svg>
